PathFileType	4	(X/Y/Z)	C:\Users\Basilio\Documents\Thesis Gigler\squatting_fais\c3dfiles\047\SLS_pre_front5\markers_experimental.trc
DataRate	CameraRate	NumFrames	NumMarkers	Units	OrigDataRate	OrigDataStartFrame	OrigNumFrames
200.000000	200.000000	4	60	mm	200.000000	1035	1183
Frame#	Time	FHD			LBHD			RBHD			C7			T10			CLAV			LSHO			LUUPA			LMUPA			LDUPA			LLEP			LMEP			LRAD			LUL			LRFIN			RSHO			RUPA1			RMUPA			RDUPA			RLEP			RMEP			RRAD			RUL			RUFIN			LASI			RASI			USACR			LSACR			RSACR			LTHI1			LTHI2			LTHI3			LTHI4			LLFC			LMFC			LTIB1			LTIB2			LTIB3			LTIB4			LLMAL			LMMAL			LMT1			LMT2			LMT5			RTHI			RTHI2			RTHI3			RTHI4			RLFC			RMFC			RTIB1			RTIB2			RTIB3			RTIB4			RLMAL			RMMAL			RHEE			RMT1			RMT2			RMT5			
		X1	Y1	Z1	X2	Y2	Z2	X3	Y3	Z3	X4	Y4	Z4	X5	Y5	Z5	X6	Y6	Z6	X7	Y7	Z7	X8	Y8	Z8	X9	Y9	Z9	X10	Y10	Z10	X11	Y11	Z11	X12	Y12	Z12	X13	Y13	Z13	X14	Y14	Z14	X15	Y15	Z15	X16	Y16	Z16	X17	Y17	Z17	X18	Y18	Z18	X19	Y19	Z19	X20	Y20	Z20	X21	Y21	Z21	X22	Y22	Z22	X23	Y23	Z23	X24	Y24	Z24	X25	Y25	Z25	X26	Y26	Z26	X27	Y27	Z27	X28	Y28	Z28	X29	Y29	Z29	X30	Y30	Z30	X31	Y31	Z31	X32	Y32	Z32	X33	Y33	Z33	X34	Y34	Z34	X35	Y35	Z35	X36	Y36	Z36	X37	Y37	Z37	X38	Y38	Z38	X39	Y39	Z39	X40	Y40	Z40	X41	Y41	Z41	X42	Y42	Z42	X43	Y43	Z43	X44	Y44	Z44	X45	Y45	Z45	X46	Y46	Z46	X47	Y47	Z47	X48	Y48	Z48	X49	Y49	Z49	X50	Y50	Z50	X51	Y51	Z51	X52	Y52	Z52	X53	Y53	Z53	X54	Y54	Z54	X55	Y55	Z55	X56	Y56	Z56	X57	Y57	Z57	X58	Y58	Z58	X59	Y59	Z59	X60	Y60	Z60	

1036	5.175	-211.7224273681641	1745.11181640625	-1048.119750976563	-384.7422485351564	1701.778198242188	-1085.1435546875	-369.0520629882813	1700.004760742188	-937.334899902344	-397.6301269531251	1510.890380859375	-1021.994567871094	-380.0231323242188	1203.286254882813	-1010.695068359375	-241.0740966796876	1476.06005859375	-1046.050170898438	-326.3250427246094	1501.709716796875	-1189.588256835938	-239.6984863281251	1444.600708007813	-1329.158813476563	-219.2422332763672	1489.866455078125	-1325.902099609375	-181.0465698242188	1461.552978515625	-1361.814575195313	-126.9178619384766	1490.026000976563	-1387.905517578125	-83.36151123046876	1436.029907226563	-1344.910400390625	135.8994598388672	1542.457641601563	-1413.072265625	110.2908401489258	1555.793212890625	-1484.759643554688	202.8917388916016	1586.597534179688	-1445.620971679688	-291.1965026855469	1512.488037109375	-892.5935668945315	-160.3192901611328	1455.712524414063	-777.375671386719	-135.4514617919922	1494.295043945313	-795.5505371093752	-91.92466735839845	1460.427001953125	-770.9606933593752	-25.81529808044434	1480.698120117188	-773.4461059570315	-8.138933181762697	1416.466064453125	-821.2978515625002	239.7395019531251	1502.833618164063	-820.299743652344	227.5178833007813	1516.643310546875	-747.5353393554689	314.9882507324219	1531.556274414063	-803.473571777344	-201.5714874267579	988.2572021484377	-1108.804443359375	-196.5911712646485	1009.888427734375	-879.3862915039065	-385.561248779297	1070.521728515625	-1002.195495605469	-386.0337524414064	1037.01025390625	-1028.845703125	-388.665740966797	1041.140380859375	-970.1268310546877	-290.7664794921876	827.6389770507815	-1167.6943359375	-255.4297943115235	751.0203857421876	-1166.609375	-206.5256652832032	755.4818725585939	-1157.416015625	-284.1110534667969	697.5278320312501	-1156.393432617188	-307.6392822265626	525.7532348632814	-1115.119262695313	-272.5135803222657	518.8825073242189	-996.9153442382815	-276.9728088378907	342.1822814941407	-1014.459716796875	-288.3916015625001	293.3390502929688	-1088.214721679688	-270.1878051757813	292.5176391601563	-1042.9306640625	-283.1802368164063	217.4424743652344	-1010.847778320313	-335.4664611816407	118.0139617919922	-1050.298095703125	-312.5562133789063	136.4206848144532	-965.135437011719	-191.4813690185547	62.41603088378908	-978.5980224609377	-189.4169158935547	58.88599014282228	-1023.264099121094	-237.2684173583985	44.27158355712891	-1068.73095703125	-203.6632690429688	847.966003417969	-780.1361083984377	-139.4301910400391	829.7044067382815	-785.9797363281252	-117.0616531372071	850.2510375976565	-795.5354614257815	-108.6708602905274	751.8837890625001	-785.3333740234377	-12.074857711792	641.1979370117189	-802.638366699219	3.227244377136231	638.9622192382814	-924.9956665039065	82.02035522460939	547.8760375976564	-823.289489746094	71.8609085083008	449.7785644531251	-773.3952636718752	107.9359588623047	468.8563232421876	-796.1281738281252	135.8497161865235	429.2691650390626	-828.9075927734377	155.2210693359375	272.1371765136719	-787.9638671875002	163.8529510498047	286.4932250976563	-878.2832031250002	109.4372100830078	216.4767150878907	-831.7873535156252	311.5119323730469	262.2535400390626	-874.590270996094	316.8598022460938	273.9100341796876	-830.6743774414065	285.6529846191407	241.2449035644532	-768.2945556640627	
1037	5.18	-211.6235351562501	1745.126831054688	-1048.3779296875	-384.6480407714845	1701.869506835938	-1085.413696289063	-369.0610046386719	1700.071411132813	-937.7463989257815	-397.6163635253907	1510.87744140625	-1022.189453125	-380.0976867675782	1203.346313476563	-1010.498168945313	-241.3846130371094	1475.809326171875	-1046.041015625	-326.4706420898438	1501.359741210938	-1189.659423828125	-240.1376190185547	1444.1142578125	-1329.271606445313	-219.436508178711	1489.307861328125	-1326.260620117188	-181.3380432128907	1460.976928710938	-1361.97900390625	-127.2048568725586	1489.351440429688	-1388.105346679688	-83.30699920654298	1435.388427734375	-1345.055419921875	136.1448974609375	1542.032104492188	-1413.272216796875	110.1575088500977	1554.893920898438	-1484.988403320313	202.6597595214844	1585.974609375	-1445.827758789063	-291.2045593261719	1512.498779296875	-892.7683105468752	-160.4325866699219	1455.601440429688	-777.4677734375002	-135.5362854003907	1494.178466796875	-795.5630493164065	-91.98358154296876	1460.357421875	-770.926696777344	-25.81615829467774	1480.606079101563	-773.333923339844	-8.157718658447267	1416.232055664063	-821.2605590820315	239.7368469238282	1502.676513671875	-820.3265380859377	227.5686645507813	1516.587036132813	-747.5343017578126	314.9591979980469	1531.481079101563	-803.6099243164065	-201.7402954101563	988.3574218750002	-1108.708251953125	-196.6087341308594	1009.837097167969	-879.3396606445315	-385.7130432128907	1070.542358398438	-1001.926452636719	-386.259735107422	1037.119750976563	-1028.504028320313	-388.7799377441407	1041.12353515625	-969.8437500000002	-290.9886474609376	827.7275390625002	-1167.617919921875	-255.738754272461	751.5035400390626	-1167.021850585938	-206.7210235595704	755.6190795898439	-1157.486572265625	-283.9950256347657	697.5191650390626	-1156.677490234375	-307.6225585937501	525.7864990234376	-1115.194946289063	-272.2868652343751	518.8663330078126	-997.1036376953127	-276.9296569824219	342.2221374511719	-1014.700500488281	-287.3846435546876	293.6654052734376	-1089.1943359375	-270.1854553222657	292.4799194335938	-1043.186889648438	-283.2257995605469	217.3848571777344	-1011.056701660156	-335.3412475585938	118.2434616088867	-1050.385620117188	-312.3880310058594	136.5081787109375	-965.5043945312502	-191.4909057617188	62.51537322998048	-978.8253173828127	-189.391845703125	58.87422943115236	-1023.40380859375	-237.2840728759766	44.12375259399415	-1068.865844726563	-203.6792144775391	847.9749145507815	-780.0613403320315	-139.4877471923828	829.6300048828127	-785.9151611328127	-117.1243743896485	850.2009277343752	-795.3169555664065	-108.7936019897461	751.8017578125001	-785.1787109375002	-12.12710952758789	641.0859985351564	-802.623718261719	2.970972299575806	638.7581787109376	-924.8468017578127	81.80102539062501	547.7894897460939	-823.083435058594	71.5667190551758	449.5897827148439	-773.3372192382815	107.5538101196289	468.5486145019532	-795.4951171875002	135.684814453125	429.0799865722657	-828.842224121094	154.9691925048828	272.0036315917969	-787.7147216796877	163.3709564208985	286.1715087890626	-878.0328369140627	109.3745574951172	216.2342224121094	-831.638610839844	311.3681945800782	261.8868408203126	-874.524353027344	316.5236206054688	273.7256774902344	-830.6462402343752	285.3512268066407	240.9015350341797	-768.127136230469	
1038	5.185	-211.4423370361329	1745.210205078125	-1048.56884765625	-384.5915527343751	1701.889404296875	-1085.797119140625	-369.0975952148438	1700.161743164063	-938.1306762695315	-397.6163024902345	1510.890380859375	-1022.36328125	-380.2847290039063	1203.383544921875	-1010.311462402344	-241.491928100586	1475.677124023438	-1046.222045898438	-326.1637878417969	1501.608520507813	-1189.981201171875	-240.2257232666016	1443.50048828125	-1329.528564453125	-219.8736267089844	1488.73876953125	-1326.663940429688	-181.5479888916016	1460.140869140625	-1362.230346679688	-127.0460510253907	1488.081909179688	-1388.551391601563	-83.6745071411133	1434.027099609375	-1345.061157226563	135.8296661376953	1540.899658203125	-1413.462646484375	110.0797882080078	1554.042846679688	-1485.174072265625	202.3212432861329	1584.991088867188	-1445.984130859375	-291.1635131835938	1512.524047851563	-892.9331054687502	-160.6722717285157	1455.418090820313	-777.4720458984377	-135.5129852294922	1494.088012695313	-795.6530761718752	-91.99851989746095	1460.357299804688	-771.0252075195315	-25.86019325256348	1480.51513671875	-773.245056152344	-8.209136962890627	1415.917358398438	-821.054382324219	239.5824127197266	1502.52294921875	-820.3577270507815	227.4743652343751	1516.445434570313	-747.5844726562501	314.9312133789063	1531.392944335938	-803.7506103515627	-201.9724426269532	988.3579101562502	-1108.691528320313	-196.6636199951172	1009.783142089844	-879.3123779296877	-385.5017089843751	1070.783935546875	-1001.464782714844	-386.2834472656251	1037.18701171875	-1028.16552734375	-388.7310485839845	1041.156127929688	-969.615661621094	-290.9402465820313	827.9693603515627	-1167.693481445313	-255.8833465576172	751.6071777343751	-1167.040405273438	-206.840316772461	755.6632080078126	-1157.583129882813	-284.1059570312501	697.6361083984376	-1156.719116210938	-307.6739807128907	525.8370361328126	-1115.252197265625	-272.0115356445313	518.8656616210939	-997.316345214844	-276.8434143066407	342.2019042968751	-1014.864013671875	-287.6651000976563	293.5755615234376	-1089.339477539063	-270.2182617187501	292.5508422851563	-1043.48388671875	-283.2635498046876	217.398910522461	-1011.35009765625	-335.4206848144532	118.1938018798828	-1050.560791015625	-312.4071960449219	136.5334777832032	-965.7251586914065	-191.3907165527344	62.73840332031251	-979.0017089843752	-189.2989349365235	58.9140090942383	-1023.72509765625	-237.1780700683594	44.0561752319336	-1069.06494140625	-203.7030487060547	847.9372558593752	-780.1069946289065	-139.4585418701172	829.6284179687502	-785.9509277343752	-117.2673797607422	850.2196044921877	-795.121520996094	-108.8059539794922	751.7864990234376	-785.199401855469	-12.19697189331055	641.0156860351564	-802.571716308594	2.771749496459961	638.5476074218751	-924.7797851562502	81.47043609619142	547.5061645507814	-822.8895263671877	71.32007598876955	449.3757934570314	-773.191833496094	107.1991424560547	468.4483337402345	-795.1929321289065	135.22802734375	428.6951599121095	-828.539733886719	154.7478332519532	271.9496459960938	-787.671325683594	162.9990844726563	285.9135742187501	-877.8666992187502	108.8082809448242	215.9384918212891	-831.2216796875002	311.0417480468751	261.5083923339844	-874.5303955078127	316.2994079589844	273.4866943359376	-830.856872558594	284.9948425292969	240.4083862304688	-768.0552368164065	
1039	5.19	-210.6612091064454	1745.614135742188	-1049.815307617188	-384.5054321289064	1701.905029296875	-1086.140014648438	-368.9937744140626	1700.205688476563	-938.6846313476565	-397.5716857910157	1510.8974609375	-1022.508972167969	-380.2932739257813	1203.406494140625	-1010.15771484375	-241.5883026123047	1475.609497070313	-1046.55810546875	-326.4003295898438	1501.286499023438	-1190.085205078125	-240.6900329589844	1443.00146484375	-1329.627685546875	-220.0011138916016	1488.066650390625	-1326.658203125	-181.7446594238282	1459.407104492188	-1362.581909179688	-127.3417205810547	1487.07373046875	-1389.191528320313	-83.82596588134767	1433.585205078125	-1345.690063476563	135.892822265625	1540.01025390625	-1413.892822265625	109.8536148071289	1553.036010742188	-1485.340576171875	202.3077239990235	1584.182006835938	-1446.2041015625	-291.1215820312501	1512.526611328125	-893.0754394531252	-160.7972717285157	1455.248657226563	-777.5334472656252	-135.5171966552735	1493.889282226563	-795.6587524414065	-92.15261077880861	1460.187377929688	-770.8728637695315	-25.9587802886963	1480.393310546875	-773.0989990234377	-8.387819290161135	1415.636840820313	-820.7351074218752	239.9618225097657	1501.858520507813	-820.6339111328127	227.5684356689454	1516.261962890625	-747.6311035156251	314.7256774902344	1531.226440429688	-803.7722167968752	-202.4524383544922	988.297790527344	-1108.276245117188	-196.6164703369141	1009.760559082031	-879.2402954101565	-385.9904174804689	1070.56884765625	-1001.31884765625	-386.5921020507814	1037.25537109375	-1027.860473632813	-388.7577514648439	1041.169311523438	-969.3653564453127	-291.5288085937501	827.8689575195315	-1167.556030273438	-256.1869506835938	751.5865478515626	-1166.782592773438	-207.0014953613282	755.7063598632814	-1157.6396484375	-284.2678833007813	697.7250366210939	-1156.741821289063	-307.6448364257813	525.8746337890626	-1115.3154296875	-271.8999633789063	518.8433227539064	-997.4143066406252	-276.7000122070313	342.1903991699219	-1015.117065429688	-287.7076110839844	293.5921020507813	-1089.565795898438	-270.1463623046876	292.5910034179688	-1043.868041992188	-283.2789916992188	217.3124694824219	-1011.590270996094	-335.5134582519532	118.1131896972657	-1050.7060546875	-312.4648742675782	136.6278991699219	-965.971618652344	-191.5491027832032	62.84584426879884	-979.1138916015627	-189.2601013183594	58.90744018554689	-1023.752197265625	-237.2254791259766	43.93249130249024	-1069.11279296875	-203.6885681152344	847.9384765625002	-780.1159667968752	-139.6109619140625	829.5574340820315	-785.7384033203127	-117.2944564819336	850.163024902344	-795.0609130859377	-108.7710342407227	751.7601318359376	-785.116882324219	-12.35590839385987	640.8694458007814	-802.4070434570315	2.363037109375	638.2880249023439	-924.561706542969	81.29471588134767	547.3729858398439	-822.812194824219	71.17870330810548	449.2227783203126	-773.071472167969	106.9438095092774	468.3189392089845	-795.1188964843752	135.0352935791016	428.6237182617189	-828.570739746094	153.8010406494141	271.1275634765626	-788.5323486328127	162.6295471191407	285.6942443847657	-877.6967773437502	108.3894500732422	215.8202056884766	-830.9471435546877	310.7511901855469	261.3021850585938	-874.6018676757815	315.9171447753907	273.1575622558594	-830.8261718750002	284.8436279296876	240.2206420898438	-768.2070922851565	
